<svg width="16" height="18" viewBox="0 0 16 18" fill="none" xmlns="http://www.w3.org/2000/svg">
<path d="M14.8155 0.647895C14.6179 0.665254 14.4239 0.72123 14.2412 0.813638H14.2387C14.0633 0.897625 13.2293 1.32127 11.9613 1.96344L7.41748 4.27418C4.15703 5.93162 0.951991 7.56378 0.951991 7.56378L0.990154 7.54595C0.990154 7.54595 0.76918 7.63365 0.538358 7.82466C0.395758 7.93423 0.27305 8.0776 0.17766 8.24608C0.0644027 8.44676 -0.0266951 8.75372 0.00715884 9.07108C0.0625562 9.6077 0.350622 9.92953 0.557439 10.1072C0.766718 10.287 0.966148 10.371 0.966148 10.371H0.971073L3.97669 11.5937C4.11149 12.1162 4.89259 15.217 5.08032 15.9312C5.19112 16.3578 5.29884 16.6247 5.43364 16.8283C5.49888 16.9324 5.57521 17.0193 5.66692 17.0892C5.7146 17.1227 5.76544 17.1491 5.81834 17.168L5.78756 17.1591C5.7968 17.162 5.80418 17.171 5.81095 17.1739C5.83557 17.1821 5.85219 17.1851 5.88359 17.191C6.35939 17.3649 6.74163 17.0082 6.74163 17.0082L6.76317 16.9874L8.53773 15.0364L11.512 17.7916L11.5797 17.8265C12.1995 18.155 12.8273 17.9722 13.1591 17.6496C13.4933 17.3248 13.6232 16.9093 13.6232 16.9093L13.6448 16.8424L15.9431 2.62492C16.0084 2.27411 16.025 1.9456 15.953 1.62675C15.8787 1.30405 15.7072 1.02651 15.4722 0.848571C15.2749 0.703724 15.0461 0.633809 14.8155 0.647895ZM14.7533 2.17155C14.7509 2.21837 14.7582 2.21317 14.741 2.3031V2.31128L12.4642 16.3809C12.4543 16.401 12.4377 16.4448 12.3922 16.4887C12.3441 16.5347 12.306 16.5637 12.1059 16.4678L8.46818 13.1002L6.27075 15.5187L6.7324 11.9586L12.6759 5.26939C12.9209 4.99439 12.839 4.93641 12.839 4.93641C12.8563 4.59898 12.4691 4.83756 12.4691 4.83756L4.97445 10.4439L4.97199 10.429L1.37978 8.96851V8.96554L1.37055 8.96331C1.37685 8.96079 1.38301 8.95781 1.38901 8.95439L1.40871 8.9425L1.42779 8.93433C1.42779 8.93433 4.6353 7.30216 7.89574 5.64473C9.52812 4.81452 11.1728 3.97837 12.4377 3.33324C13.7026 2.69182 14.6376 2.22134 14.6905 2.19607C14.741 2.17229 14.717 2.17229 14.7533 2.17229V2.17155Z" fill="#F1F1F1"/>
</svg>
