<svg width="17" height="26" viewBox="0 0 17 26" fill="none" xmlns="http://www.w3.org/2000/svg">
<path fill-rule="evenodd" clip-rule="evenodd" d="M8.125 4.875C8.34049 4.875 8.54715 4.9606 8.69952 5.11298C8.8519 5.26535 8.9375 5.47201 8.9375 5.6875V8.9375C8.9375 9.15299 8.8519 9.35965 8.69952 9.51202C8.54715 9.6644 8.34049 9.75 8.125 9.75C7.90951 9.75 7.70285 9.6644 7.55048 9.51202C7.3981 9.35965 7.3125 9.15299 7.3125 8.9375V5.6875C7.3125 5.47201 7.3981 5.26535 7.55048 5.11298C7.70285 4.9606 7.90951 4.875 8.125 4.875ZM14.625 17.875V8.125C14.625 6.40109 13.9402 4.74779 12.7212 3.52881C11.5022 2.30982 9.84891 1.625 8.125 1.625C6.40109 1.625 4.74779 2.30982 3.52881 3.52881C2.30982 4.74779 1.625 6.40109 1.625 8.125V17.875C1.625 19.5989 2.30982 21.2522 3.52881 22.4712C4.74779 23.6902 6.40109 24.375 8.125 24.375C9.84891 24.375 11.5022 23.6902 12.7212 22.4712C13.9402 21.2522 14.625 19.5989 14.625 17.875ZM8.125 0C5.97012 0 3.90349 0.856024 2.37976 2.37976C0.856024 3.90349 0 5.97012 0 8.125V17.875C0 20.0299 0.856024 22.0965 2.37976 23.6202C3.90349 25.144 5.97012 26 8.125 26C10.2799 26 12.3465 25.144 13.8702 23.6202C15.394 22.0965 16.25 20.0299 16.25 17.875V8.125C16.25 5.97012 15.394 3.90349 13.8702 2.37976C12.3465 0.856024 10.2799 0 8.125 0V0Z" fill="#F9F9F9"/>
</svg>
