<svg width="16" height="16" viewBox="0 0 16 16" fill="none" xmlns="http://www.w3.org/2000/svg">
<path d="M8.1084 3.87851C7.01878 3.87851 5.9738 4.31068 5.20332 5.07996C4.43285 5.84924 4 6.8926 4 7.98053C4 9.06845 4.43285 10.1118 5.20332 10.8811C5.9738 11.6504 7.01878 12.0825 8.1084 12.0825C9.19801 12.0825 10.243 11.6504 11.0135 10.8811C11.7839 10.1118 12.2168 9.06845 12.2168 7.98053C12.2168 6.8926 11.7839 5.84924 11.0135 5.07996C10.243 4.31068 9.19801 3.87851 8.1084 3.87851ZM8.1084 10.6445C7.40052 10.6445 6.72164 10.3638 6.2211 9.864C5.72056 9.36424 5.43936 8.68641 5.43936 7.97964C5.43936 7.27287 5.72056 6.59504 6.2211 6.09528C6.72164 5.59551 7.40052 5.31475 8.1084 5.31475C8.81627 5.31475 9.49515 5.59551 9.99569 6.09528C10.4962 6.59504 10.7774 7.27287 10.7774 7.97964C10.7774 8.68641 10.4962 9.36424 9.99569 9.864C9.49515 10.3638 8.81627 10.6445 8.1084 10.6445Z" fill="#F1F1F1"/>
<path d="M11.6197 4.56954C12.1487 4.56954 12.5775 4.14139 12.5775 3.61324C12.5775 3.08508 12.1487 2.65693 11.6197 2.65693C11.0907 2.65693 10.6619 3.08508 10.6619 3.61324C10.6619 4.14139 11.0907 4.56954 11.6197 4.56954Z" fill="#F1F1F1"/>
<path d="M15.5762 2.75538C15.3705 2.22504 15.0562 1.74343 14.6533 1.34137C14.2505 0.939308 13.768 0.625656 13.2368 0.420492C12.6151 0.187498 11.9584 0.0615135 11.2945 0.0479041C10.4389 0.0106453 10.1679 0 7.99822 0C5.82852 0 5.55042 -9.31323e-08 4.70191 0.0479041C4.03855 0.0608177 3.38228 0.186828 2.76144 0.420492C2.23006 0.625417 1.74746 0.938984 1.34459 1.34108C0.941718 1.74317 0.62748 2.22491 0.422035 2.75538C0.188631 3.37601 0.0627406 4.03179 0.0497557 4.69461C0.0115504 5.54802 0 5.81859 0 7.98581C0 10.1521 -7.45058e-09 10.428 0.0497557 11.277C0.0630831 11.9406 0.188361 12.5953 0.422035 13.2171C0.628056 13.7474 0.9426 14.2289 1.34557 14.631C1.74853 15.033 2.23107 15.3467 2.76233 15.552C3.38199 15.7944 4.03854 15.9294 4.70369 15.9512C5.55931 15.9885 5.8303 16 8 16C10.1697 16 10.4478 16 11.2963 15.9512C11.9601 15.9377 12.6168 15.8121 13.2386 15.5795C13.7697 15.3739 14.252 15.0599 14.6548 14.6578C15.0576 14.2556 15.372 13.774 15.578 13.2437C15.8116 12.6228 15.9369 11.9681 15.9502 11.3045C15.9884 10.4511 16 10.1805 16 8.01331C16 5.84609 16 5.57108 15.9502 4.72211C15.9399 4.04992 15.8134 3.38456 15.5762 2.75538ZM14.494 11.2114C14.4883 11.7226 14.3948 12.2291 14.2177 12.7088C14.0843 13.0538 13.88 13.367 13.618 13.6285C13.356 13.8899 13.0422 14.0936 12.6966 14.2267C12.2214 14.4027 11.7196 14.496 11.2128 14.5026C10.3687 14.5416 10.1306 14.5513 7.96624 14.5513C5.80009 14.5513 5.57885 14.5513 4.71879 14.5026C4.21229 14.4964 3.71064 14.403 3.2359 14.2267C2.8891 14.0945 2.57397 13.8911 2.31088 13.6296C2.04778 13.3681 1.84259 13.0544 1.70857 12.7088C1.53394 12.2342 1.44053 11.7337 1.43225 11.2282C1.39405 10.3855 1.38516 10.1477 1.38516 7.98669C1.38516 5.8248 1.38516 5.6039 1.43225 4.74429C1.438 4.23333 1.53146 3.72714 1.70857 3.24773C1.97956 2.54779 2.53487 1.9969 3.2359 1.72899C3.71087 1.55346 4.21237 1.46016 4.71879 1.45309C5.56375 1.41495 5.80098 1.4043 7.96624 1.4043C10.1315 1.4043 10.3536 1.4043 11.2128 1.45309C11.7196 1.45918 12.2216 1.55251 12.6966 1.72899C13.0421 1.8623 13.356 2.06627 13.6179 2.32782C13.8799 2.58936 14.0842 2.9027 14.2177 3.24773C14.3923 3.72229 14.4857 4.22281 14.494 4.72832C14.5322 5.57197 14.542 5.80883 14.542 7.97073C14.542 10.1317 14.542 10.3642 14.5038 11.2122L14.494 11.2114Z" fill="#F1F1F1"/>
</svg>
